# xmcd
#
# Track frame offsets:
#	183
#	13485
#	26975
#	39433
#	52600
#	64495
#	80388
#	95275
#	105725
#	118605
#	131238
#	143623
#	156030
#	169478
#	179958
#	192285
#
# Disc length: 2727 seconds
#
# Revision: 0
# Processed by: cddbd v1.5.2PL0 Copyright (c) Steve Scherf et al.
# Submitted via: EasyCDDAExtractor 16.0.9.1
#
DISCID=e50aa510
DTITLE=Dionne Warwick - N-034 Dionne Warwick
DYEAR=1900
DGENRE=
TTITLE0=Raindrops keep falling on my head
TTITLE1=I say a little prayer for you
TTITLE2=Trains, boats, planes
TTITLE3=Do you know the way of San José?
TTITLE4=Reach out for me
TTITLE5=This girl's in love with you
TTITLE6=The windows of the world
TTITLE7=I'll never fall in love again
TTITLE8=Alfie
TTITLE9=I walk on by
TTITLE10=Only love can break a heart
TTITLE11=In between the heartaches
TTITLE12=Anyone who had a heart
TTITLE13=Close to you
TTITLE14=Don't make me over
TTITLE15=Promises, promises
EXTD=
EXTT0=
EXTT1=
EXTT2=
EXTT3=
EXTT4=
EXTT5=
EXTT6=
EXTT7=
EXTT8=
EXTT9=
EXTT10=
EXTT11=
EXTT12=
EXTT13=
EXTT14=
EXTT15=
PLAYORDER=
